<mxfile host="app.diagrams.net" modified="2024-01-27T04:12:54.404Z" agent="Mozilla/5.0 (Windows NT 10.0; Win64; x64) AppleWebKit/537.36 (KHTML, like Gecko) Chrome/121.0.0.0 Safari/537.36" etag="fy9DXOziYWYhTIQS4a9O" version="23.0.2" type="device">
  <diagram name="Seite-1" id="RjQElk5X8pEcTZn8_u9m">
    <mxGraphModel dx="1434" dy="754" grid="1" gridSize="10" guides="1" tooltips="1" connect="1" arrows="1" fold="1" page="1" pageScale="1" pageWidth="1654" pageHeight="1169" math="0" shadow="0">
      <root>
        <mxCell id="0" />
        <mxCell id="1" parent="0" />
        <mxCell id="Pfc6o-DjHNUA7IROcY93-8" style="edgeStyle=orthogonalEdgeStyle;rounded=0;orthogonalLoop=1;jettySize=auto;html=1;exitX=0.5;exitY=1;exitDx=0;exitDy=0;entryX=0.5;entryY=0;entryDx=0;entryDy=0;curved=1;" edge="1" parent="1" source="Pfc6o-DjHNUA7IROcY93-1" target="Pfc6o-DjHNUA7IROcY93-6">
          <mxGeometry relative="1" as="geometry" />
        </mxCell>
        <mxCell id="Pfc6o-DjHNUA7IROcY93-1" value="&lt;div style=&quot;text-align: left; font-size: 15px;&quot;&gt;&lt;span style=&quot;background-color: initial;&quot;&gt;&lt;font style=&quot;font-size: 15px;&quot;&gt;{&lt;/font&gt;&lt;/span&gt;&lt;/div&gt;&lt;div style=&quot;font-size: 15px;&quot;&gt;&lt;span style=&quot;background-color: initial;&quot;&gt;&lt;font style=&quot;font-size: 15px;&quot;&gt;....&lt;/font&gt;&lt;/span&gt;&lt;/div&gt;&lt;font style=&quot;font-size: 15px;&quot;&gt;&quot;satlatitude&quot;: - 39.90318614,&lt;br&gt;&amp;nbsp; &amp;nbsp;&quot;satlongitude&quot;:158.28897924,&lt;br&gt;&lt;div style=&quot;text-align: left;&quot;&gt;&lt;span style=&quot;background-color: initial;&quot;&gt;&amp;nbsp; &amp;nbsp;&quot;satlatitude&quot;:417.85,&lt;/span&gt;&lt;/div&gt;&lt;div style=&quot;text-align: left;&quot;&gt;&lt;span style=&quot;background-color: initial;&quot;&gt;&amp;nbsp; &amp;nbsp;&quot;azimuth&quot;:.254.31,&lt;/span&gt;&lt;/div&gt;&lt;div style=&quot;text-align: left;&quot;&gt;&lt;span style=&quot;background-color: initial;&quot;&gt;&amp;nbsp; &amp;nbsp;&quot;elevation&quot;:-69.09&lt;/span&gt;&lt;/div&gt;...&lt;br&gt;&lt;/font&gt;&lt;div style=&quot;text-align: left; font-size: 15px;&quot;&gt;&lt;span style=&quot;background-color: initial;&quot;&gt;&lt;font style=&quot;font-size: 15px;&quot;&gt;}&lt;/font&gt;&lt;/span&gt;&lt;/div&gt;" style="rounded=1;whiteSpace=wrap;html=1;fillColor=#d5e8d4;strokeColor=#82b366;" vertex="1" parent="1">
          <mxGeometry x="290" y="80" width="240" height="170" as="geometry" />
        </mxCell>
        <mxCell id="Pfc6o-DjHNUA7IROcY93-3" style="edgeStyle=orthogonalEdgeStyle;rounded=0;orthogonalLoop=1;jettySize=auto;html=1;entryX=0;entryY=0.5;entryDx=0;entryDy=0;curved=1;" edge="1" parent="1" target="Pfc6o-DjHNUA7IROcY93-1">
          <mxGeometry relative="1" as="geometry">
            <mxPoint x="180" y="165" as="sourcePoint" />
          </mxGeometry>
        </mxCell>
        <mxCell id="Pfc6o-DjHNUA7IROcY93-5" value="&lt;font style=&quot;font-size: 17px;&quot;&gt;API&lt;br&gt;(N2YO)&lt;/font&gt;" style="ellipse;whiteSpace=wrap;html=1;fillColor=#dae8fc;strokeColor=#6c8ebf;" vertex="1" parent="1">
          <mxGeometry x="60" y="125" width="120" height="80" as="geometry" />
        </mxCell>
        <mxCell id="Pfc6o-DjHNUA7IROcY93-6" value="&lt;font style=&quot;font-size: 17px;&quot;&gt;GUI&lt;/font&gt;" style="ellipse;whiteSpace=wrap;html=1;fillColor=#ffe6cc;strokeColor=#d79b00;" vertex="1" parent="1">
          <mxGeometry x="170" y="310" width="120" height="80" as="geometry" />
        </mxCell>
        <mxCell id="Pfc6o-DjHNUA7IROcY93-9" style="edgeStyle=orthogonalEdgeStyle;rounded=0;orthogonalLoop=1;jettySize=auto;html=1;exitX=1;exitY=0.5;exitDx=0;exitDy=0;entryX=0;entryY=0.5;entryDx=0;entryDy=0;" edge="1" parent="1" source="Pfc6o-DjHNUA7IROcY93-10" target="Pfc6o-DjHNUA7IROcY93-15">
          <mxGeometry relative="1" as="geometry" />
        </mxCell>
        <mxCell id="Pfc6o-DjHNUA7IROcY93-10" value="&lt;font style=&quot;font-size: 17px;&quot;&gt;STM32&lt;/font&gt;" style="ellipse;whiteSpace=wrap;html=1;fillColor=#dae8fc;strokeColor=#6c8ebf;" vertex="1" parent="1">
          <mxGeometry x="500" y="310" width="120" height="80" as="geometry" />
        </mxCell>
        <mxCell id="Pfc6o-DjHNUA7IROcY93-11" value="" style="endArrow=none;dashed=1;html=1;rounded=0;entryX=0;entryY=0.5;entryDx=0;entryDy=0;exitX=1;exitY=0.5;exitDx=0;exitDy=0;" edge="1" parent="1" target="Pfc6o-DjHNUA7IROcY93-10" source="Pfc6o-DjHNUA7IROcY93-6">
          <mxGeometry width="50" height="50" relative="1" as="geometry">
            <mxPoint x="300" y="360" as="sourcePoint" />
            <mxPoint x="560" y="350" as="targetPoint" />
          </mxGeometry>
        </mxCell>
        <mxCell id="Pfc6o-DjHNUA7IROcY93-12" value="&lt;font style=&quot;font-size: 17px;&quot;&gt;COM3&lt;/font&gt;" style="text;html=1;strokeColor=none;fillColor=none;align=center;verticalAlign=middle;whiteSpace=wrap;rounded=0;" vertex="1" parent="1">
          <mxGeometry x="370" y="365" width="60" height="25" as="geometry" />
        </mxCell>
        <mxCell id="Pfc6o-DjHNUA7IROcY93-13" value="&lt;font style=&quot;font-size: 17px;&quot;&gt;&quot;254.310&amp;nbsp;&lt;/font&gt;&lt;font style=&quot;font-size: 21px;&quot;&gt;␣&lt;/font&gt;&lt;font style=&quot;font-size: 17px;&quot;&gt; -069.090\n&quot;&lt;/font&gt;" style="text;html=1;strokeColor=none;fillColor=none;align=center;verticalAlign=middle;whiteSpace=wrap;rounded=0;" vertex="1" parent="1">
          <mxGeometry x="290" y="300" width="200" height="70" as="geometry" />
        </mxCell>
        <mxCell id="Pfc6o-DjHNUA7IROcY93-26" style="edgeStyle=orthogonalEdgeStyle;rounded=0;orthogonalLoop=1;jettySize=auto;html=1;exitX=1;exitY=0.5;exitDx=0;exitDy=0;entryX=0;entryY=0.5;entryDx=0;entryDy=0;" edge="1" parent="1" source="Pfc6o-DjHNUA7IROcY93-15" target="Pfc6o-DjHNUA7IROcY93-18">
          <mxGeometry relative="1" as="geometry" />
        </mxCell>
        <mxCell id="Pfc6o-DjHNUA7IROcY93-15" value="&lt;font style=&quot;font-size: 17px;&quot;&gt;UART-Interrupt&lt;/font&gt;" style="rounded=1;whiteSpace=wrap;html=1;fillColor=#b1ddf0;strokeColor=#10739e;" vertex="1" parent="1">
          <mxGeometry x="690" y="320" width="120" height="60" as="geometry" />
        </mxCell>
        <mxCell id="Pfc6o-DjHNUA7IROcY93-28" style="edgeStyle=orthogonalEdgeStyle;rounded=0;orthogonalLoop=1;jettySize=auto;html=1;exitX=0.5;exitY=1;exitDx=0;exitDy=0;entryX=0.5;entryY=0;entryDx=0;entryDy=0;" edge="1" parent="1" source="Pfc6o-DjHNUA7IROcY93-18" target="Pfc6o-DjHNUA7IROcY93-27">
          <mxGeometry relative="1" as="geometry" />
        </mxCell>
        <mxCell id="Pfc6o-DjHNUA7IROcY93-18" value="&lt;font style=&quot;font-size: 16px;&quot;&gt;recievePosition&lt;span style=&quot;border-color: var(--border-color); font-family: monospace; text-align: left;&quot; class=&quot;hljs-params&quot;&gt;()&lt;/span&gt;&lt;/font&gt;" style="rounded=1;whiteSpace=wrap;html=1;" vertex="1" parent="1">
          <mxGeometry x="870" y="325" width="160" height="50" as="geometry" />
        </mxCell>
        <mxCell id="Pfc6o-DjHNUA7IROcY93-21" value="&lt;font style=&quot;font-size: 17px;&quot;&gt;rotateXY(azimuth, elevation)&lt;/font&gt;" style="rounded=1;whiteSpace=wrap;html=1;" vertex="1" parent="1">
          <mxGeometry x="840" y="510" width="230" height="50" as="geometry" />
        </mxCell>
        <mxCell id="Pfc6o-DjHNUA7IROcY93-27" value="&lt;font style=&quot;font-size: 17px;&quot;&gt;azimuth = 254.310&lt;br&gt;elevation = -69.09&lt;/font&gt;" style="shape=internalStorage;whiteSpace=wrap;html=1;backgroundOutline=1;dx=10;dy=15;" vertex="1" parent="1">
          <mxGeometry x="855" y="400" width="190" height="85" as="geometry" />
        </mxCell>
        <mxCell id="Pfc6o-DjHNUA7IROcY93-29" style="edgeStyle=orthogonalEdgeStyle;rounded=0;orthogonalLoop=1;jettySize=auto;html=1;exitX=0.5;exitY=1;exitDx=0;exitDy=0;entryX=0.463;entryY=0.05;entryDx=0;entryDy=0;entryPerimeter=0;" edge="1" parent="1" source="Pfc6o-DjHNUA7IROcY93-27" target="Pfc6o-DjHNUA7IROcY93-21">
          <mxGeometry relative="1" as="geometry" />
        </mxCell>
      </root>
    </mxGraphModel>
  </diagram>
</mxfile>
